<svg xmlns="http://www.w3.org/2000/svg" viewBox="0 0 1200 675" width="1200" height="675">
<defs>
  <filter id="s" x="-20%" y="-20%" width="140%" height="140%"><feDropShadow dx="0" dy="8" stdDeviation="20" flood-color="#0E1E40" flood-opacity="0.10"/></filter>
  <filter id="ss" x="-20%" y="-20%" width="140%" height="140%"><feDropShadow dx="0" dy="4" stdDeviation="10" flood-color="#0E1E40" flood-opacity="0.07"/></filter>
  <linearGradient id="bg" x1="0" y1="0" x2="1" y2="1" gradientUnits="objectBoundingBox"><stop offset="0%" stop-color="#EBF5FB"/><stop offset="100%" stop-color="#D4E6F1"/></linearGradient>
  <linearGradient id="gd" x1="0" y1="0" x2="1" y2="1" gradientUnits="objectBoundingBox"><stop offset="0%" stop-color="#C9A84C"/><stop offset="100%" stop-color="#E8C96A"/></linearGradient>
</defs>
<rect width="1200" height="675" fill="url(#bg)"/>
<rect x="370" y="110" width="460" height="455" rx="20" fill="#FFFFFF" filter="url(#s)"/>
<rect x="370" y="110" width="460" height="6" rx="3" fill="url(#gd)"/>
<rect x="420" y="175" width="320" height="10" rx="5" fill="#0E1E40" opacity="0.10"/>
<rect x="420" y="205" width="240" height="8" rx="4" fill="#0E1E40" opacity="0.07"/>
<rect x="420" y="260" width="360" height="8" rx="4" fill="#0E1E40" opacity="0.08"/>
<rect x="420" y="286" width="300" height="8" rx="4" fill="#0E1E40" opacity="0.06"/>
<rect x="420" y="312" width="340" height="8" rx="4" fill="#0E1E40" opacity="0.07"/>
<rect x="420" y="370" width="320" height="8" rx="4" fill="#0E1E40" opacity="0.06"/>
<rect x="420" y="396" width="200" height="8" rx="4" fill="#0E1E40" opacity="0.05"/>
<circle cx="790" cy="480" r="36" fill="url(#gd)" opacity="0.18"/>
<circle cx="790" cy="480" r="24" fill="url(#gd)" opacity="0.30"/>
</svg>