<svg xmlns="http://www.w3.org/2000/svg" viewBox="0 0 1200 675" width="1200" height="675">
<defs>
  <filter id="s" x="-20%" y="-20%" width="140%" height="140%"><feDropShadow dx="0" dy="8" stdDeviation="20" flood-color="#0E1E40" flood-opacity="0.10"/></filter>
  <filter id="ss" x="-20%" y="-20%" width="140%" height="140%"><feDropShadow dx="0" dy="4" stdDeviation="10" flood-color="#0E1E40" flood-opacity="0.07"/></filter>
  <linearGradient id="bg" x1="0" y1="0" x2="1" y2="1" gradientUnits="objectBoundingBox"><stop offset="0%" stop-color="#FFFFFF"/><stop offset="100%" stop-color="#EBF5FB"/></linearGradient>
  <linearGradient id="gd" x1="0" y1="0" x2="1" y2="0" gradientUnits="objectBoundingBox"><stop offset="0%" stop-color="#C9A84C"/><stop offset="100%" stop-color="#E8C96A"/></linearGradient>
</defs>
<rect width="1200" height="675" fill="url(#bg)"/>
<polygon points="600,490 558,562 642,562" fill="#1B3358" opacity="0.82" filter="url(#ss)"/>
<rect x="520" y="558" width="160" height="13" rx="6.5" fill="#0E1E40" opacity="0.10"/>
<rect x="258" y="348" width="684" height="12" rx="6" fill="url(#gd)" filter="url(#ss)"/>
<circle cx="600" cy="354" r="18" fill="#E8C96A"/>
<circle cx="600" cy="354" r="10" fill="#C9A84C"/>
<line x1="320" y1="360" x2="320" y2="415" stroke="#0E1E40" stroke-opacity="0.18" stroke-width="2"/>
<line x1="880" y1="360" x2="880" y2="415" stroke="#0E1E40" stroke-opacity="0.18" stroke-width="2"/>
<rect x="240" y="415" width="160" height="52" rx="12" fill="#FFFFFF" filter="url(#ss)"/>
<rect x="800" y="415" width="160" height="52" rx="12" fill="#FFFFFF" filter="url(#ss)"/>
<rect x="268" y="432" width="104" height="6" rx="3" fill="#0E1E40" opacity="0.10"/>
<rect x="268" y="449" width="80" height="6" rx="3" fill="#0E1E40" opacity="0.07"/>
<rect x="828" y="432" width="104" height="6" rx="3" fill="#0E1E40" opacity="0.10"/>
<rect x="828" y="449" width="80" height="6" rx="3" fill="#0E1E40" opacity="0.07"/>
</svg>