<svg xmlns="http://www.w3.org/2000/svg" viewBox="0 0 1200 675" width="1200" height="675">
<defs>
  <filter id="s" x="-20%" y="-20%" width="140%" height="140%"><feDropShadow dx="0" dy="8" stdDeviation="20" flood-color="#0E1E40" flood-opacity="0.10"/></filter>
  <filter id="ss" x="-20%" y="-20%" width="140%" height="140%"><feDropShadow dx="0" dy="4" stdDeviation="10" flood-color="#0E1E40" flood-opacity="0.07"/></filter>
  <linearGradient id="bg" x1="0" y1="0" x2="1" y2="1" gradientUnits="objectBoundingBox"><stop offset="0%" stop-color="#EBF5FB"/><stop offset="100%" stop-color="#D4E6F1"/></linearGradient>
  <linearGradient id="bl" x1="0" y1="0" x2="0" y2="1" gradientUnits="objectBoundingBox"><stop offset="0%" stop-color="#FFFFFF"/><stop offset="100%" stop-color="#EFF6FC"/></linearGradient>
</defs>
<rect width="1200" height="675" fill="url(#bg)"/>
<rect x="380" y="225" width="440" height="360" rx="8" fill="url(#bl)" filter="url(#s)"/>
<rect x="380" y="225" width="440" height="6" rx="3" fill="#C9A84C"/>
<rect x="460" y="163" width="280" height="70" rx="8" fill="url(#bl)" filter="url(#ss)"/>
<rect x="460" y="163" width="280" height="5" rx="2.5" fill="#C9A84C" opacity="0.55"/>
<rect x="420" y="278" width="60" height="44" rx="6" fill="#0E1E40" opacity="0.07"/>
<rect x="510" y="278" width="60" height="44" rx="6" fill="#0E1E40" opacity="0.07"/>
<rect x="630" y="278" width="60" height="44" rx="6" fill="#0E1E40" opacity="0.07"/>
<rect x="720" y="278" width="60" height="44" rx="6" fill="#0E1E40" opacity="0.07"/>
<rect x="420" y="358" width="60" height="44" rx="6" fill="#0E1E40" opacity="0.07"/>
<rect x="510" y="358" width="60" height="44" rx="6" fill="#0E1E40" opacity="0.07"/>
<rect x="630" y="358" width="60" height="44" rx="6" fill="#0E1E40" opacity="0.07"/>
<rect x="720" y="358" width="60" height="44" rx="6" fill="#0E1E40" opacity="0.07"/>
<rect x="554" y="452" width="92" height="133" rx="6" fill="#0E1E40" opacity="0.07"/>
</svg>