<svg xmlns="http://www.w3.org/2000/svg" viewBox="0 0 1200 675" width="1200" height="675">
<defs>
  <filter id="s" x="-20%" y="-20%" width="140%" height="140%"><feDropShadow dx="0" dy="8" stdDeviation="20" flood-color="#0E1E40" flood-opacity="0.10"/></filter>
  <filter id="ss" x="-20%" y="-20%" width="140%" height="140%"><feDropShadow dx="0" dy="4" stdDeviation="10" flood-color="#0E1E40" flood-opacity="0.07"/></filter>
  <linearGradient id="bg" x1="0" y1="0" x2="1" y2="1" gradientUnits="objectBoundingBox"><stop offset="0%" stop-color="#EBF5FB"/><stop offset="100%" stop-color="#D4E6F1"/></linearGradient>
  <linearGradient id="sf" x1="0" y1="0" x2="0" y2="1" gradientUnits="objectBoundingBox"><stop offset="0%" stop-color="#FFFFFF"/><stop offset="100%" stop-color="#EEF5FA"/></linearGradient>
  <linearGradient id="gd" x1="0" y1="0" x2="1" y2="1" gradientUnits="objectBoundingBox"><stop offset="0%" stop-color="#C9A84C"/><stop offset="100%" stop-color="#E8C96A"/></linearGradient>
</defs>
<rect width="1200" height="675" fill="url(#bg)"/>
<path d="M600,135 L790,210 L790,400 Q790,500 600,556 Q410,500 410,400 L410,210 Z" fill="url(#sf)" filter="url(#s)"/>
<path d="M600,135 L790,210 L790,400 Q790,500 600,556 Q410,500 410,400 L410,210 Z" fill="none" stroke="url(#gd)" stroke-width="4" stroke-linejoin="round"/>
<line x1="498" y1="318" x2="702" y2="318" stroke="#0E1E40" stroke-opacity="0.07" stroke-width="6" stroke-linecap="round"/>
<line x1="498" y1="360" x2="702" y2="360" stroke="#0E1E40" stroke-opacity="0.05" stroke-width="6" stroke-linecap="round"/>
<circle cx="600" cy="253" r="28" fill="url(#gd)" opacity="0.20"/>
<circle cx="600" cy="253" r="16" fill="url(#gd)" opacity="0.38"/>
</svg>