<svg xmlns="http://www.w3.org/2000/svg" viewBox="0 0 1200 675" width="1200" height="675">
<defs>
  <filter id="s" x="-20%" y="-20%" width="140%" height="140%"><feDropShadow dx="0" dy="8" stdDeviation="20" flood-color="#0E1E40" flood-opacity="0.10"/></filter>
  <filter id="ss" x="-20%" y="-20%" width="140%" height="140%"><feDropShadow dx="0" dy="4" stdDeviation="10" flood-color="#0E1E40" flood-opacity="0.07"/></filter>
  <linearGradient id="bg" x1="0" y1="0" x2="0" y2="1" gradientUnits="objectBoundingBox"><stop offset="0%" stop-color="#FFFFFF"/><stop offset="100%" stop-color="#EBF5FB"/></linearGradient>
  <linearGradient id="cf" x1="0" y1="0" x2="0" y2="1" gradientUnits="objectBoundingBox"><stop offset="0%" stop-color="#D4E6F1" stop-opacity="0.40"/><stop offset="100%" stop-color="#D4E6F1" stop-opacity="0.04"/></linearGradient>
</defs>
<rect width="1200" height="675" fill="url(#bg)"/>
<path d="M155,542 C295,522 398,482 518,382 C638,282 758,202 1042,122 L1042,558 L155,558 Z" fill="url(#cf)"/>
<path d="M155,542 C295,522 398,482 518,382 C638,282 758,202 1042,122" fill="none" stroke="#0E1E40" stroke-width="3.5" stroke-opacity="0.16" stroke-linecap="round"/>
<path d="M155,542 C295,522 398,482 518,382 C638,282 758,202 1042,122" fill="none" stroke="#C9A84C" stroke-width="3" stroke-opacity="0.58" stroke-linecap="round"/>
<circle cx="1042" cy="122" r="16" fill="#C9A84C" opacity="0.88" filter="url(#ss)"/>
<circle cx="1042" cy="122" r="8" fill="#E8C96A"/>
<line x1="138" y1="558" x2="1062" y2="558" stroke="#0E1E40" stroke-opacity="0.06" stroke-width="2"/>
</svg>