<svg xmlns="http://www.w3.org/2000/svg" viewBox="0 0 1200 675" width="1200" height="675">
<defs>
  <filter id="s" x="-20%" y="-20%" width="140%" height="140%"><feDropShadow dx="0" dy="8" stdDeviation="20" flood-color="#0E1E40" flood-opacity="0.10"/></filter>
  <filter id="ss" x="-20%" y="-20%" width="140%" height="140%"><feDropShadow dx="0" dy="4" stdDeviation="10" flood-color="#0E1E40" flood-opacity="0.07"/></filter>
  <linearGradient id="bg" x1="0" y1="0" x2="1" y2="1" gradientUnits="objectBoundingBox"><stop offset="0%" stop-color="#F7F9FC"/><stop offset="100%" stop-color="#EBF5FB"/></linearGradient>
</defs>
<rect width="1200" height="675" fill="url(#bg)"/>
<rect x="320" y="200" width="340" height="240" rx="16" fill="#FFFFFF" opacity="0.65" filter="url(#ss)" transform="rotate(-5 490 320)"/>
<rect x="400" y="165" width="340" height="240" rx="16" fill="#FFFFFF" opacity="0.82" filter="url(#ss)" transform="rotate(2.5 570 285)"/>
<rect x="435" y="140" width="340" height="255" rx="16" fill="#FFFFFF" filter="url(#s)"/>
<rect x="435" y="140" width="340" height="5" rx="2.5" fill="#C9A84C"/>
<rect x="468" y="183" width="200" height="8" rx="4" fill="#0E1E40" opacity="0.10"/>
<rect x="468" y="206" width="150" height="6" rx="3" fill="#0E1E40" opacity="0.07"/>
<rect x="468" y="242" width="230" height="6" rx="3" fill="#0E1E40" opacity="0.08"/>
<rect x="468" y="264" width="180" height="6" rx="3" fill="#0E1E40" opacity="0.06"/>
<rect x="468" y="325" width="110" height="22" rx="11" fill="#C9A84C" opacity="0.18"/>
<circle cx="825" cy="215" r="28" fill="#C9A84C" opacity="0.12"/>
<circle cx="825" cy="215" r="16" fill="#C9A84C" opacity="0.20"/>
<circle cx="307" cy="385" r="22" fill="#D4E6F1" opacity="0.45"/>
</svg>